# xmcd
#
# Track frame offsets: 
#        150
#        15554
#        28253
#        44364
#        62810
#        77613
#        93323
#        107407
#        127133
#        137227
#        151378
#
# Disc length: 2258 seconds
#
# Revision: 1
# Processed by: cddbd v1.5.2PL0 Copyright (c) Steve Scherf et al.
# Submitted via: ExactAudioCopyFreeDBPlugin 1.0
#
DISCID=8d08d00b
DTITLE=Steve Strongman - LET ME PROVE IT TO YOU
DYEAR=2014
DGENRE=Blues
TTITLE0=THERE?S SOMETHING GOIN? ON
TTITLE1=WHAT I BELIEVE
TTITLE2=GET USED TO IT
TTITLE3=WE?RE GOIN? OUT TONIGHT
TTITLE4=LET ME PROVE IT TO YOU
TTITLE5=IT AIN?T THE FIRST TIME
TTITLE6=LOOKIN? FOR TROUBLE
TTITLE7=WHATEVER YOU?RE DOIN?
TTITLE8=AIN?T NOBODY LIKE YOU
TTITLE9=OLDER
TTITLE10=CAN YOU FEEL IT?
EXTD=
EXTT0=
EXTT1=
EXTT2=
EXTT3=
EXTT4=
EXTT5=
EXTT6=
EXTT7=
EXTT8=
EXTT9=
EXTT10=
PLAYORDER=
